<?xml version="1.0" encoding="utf-8"?>
<!-- Generator: Adobe Illustrator 18.0.0, SVG Export Plug-In . SVG Version: 6.00 Build 0)  -->
<!DOCTYPE svg PUBLIC "-//W3C//DTD SVG 1.1//EN" "http://www.w3.org/Graphics/SVG/1.1/DTD/svg11.dtd">
<svg version="1.1" id="Layer_1" xmlns="http://www.w3.org/2000/svg" xmlns:xlink="http://www.w3.org/1999/xlink" x="0px" y="0px"
	 viewBox="0 0 500 500" enable-background="new 0 0 500 500" xml:space="preserve">
<g>
	<g>
		<path fill="#000000" d="M126.7,163.4h22.5c1.7,0,3.1-1.5,3.1-3.1v-6.1c0-1.7-1.3-3.1-3.1-3.1h-16.4V71.9c0-1.7-1.5-3.1-3.1-3.1
			h-6.1c-1.7,0-3.1,1.3-3.1,3.1v85.4C120.6,160.6,123.3,163.4,126.7,163.4z"/>
		<path fill="#000000" d="M234,163.4h22.7c1.7,0,3.1-1.3,3.1-3.1v-6.1c0-1.7-1.3-3.1-3.1-3.1h-16.6v-29h16.6c1.7,0,3.1-1.3,3.1-3.1
			V113c0-1.7-1.3-3.1-3.1-3.1h-16.6V81.1h16.6c1.7,0,3.1-1.3,3.1-3.1v-6.1c0-1.7-1.3-3.1-3.1-3.1H234c-3.4,0-6.1,2.7-6.1,6.1v82.4
			C227.9,160.6,230.6,163.4,234,163.4z"/>
		<path fill="#000000" d="M357.5,69c-12.2,0-22.2,9.9-22.2,22v69.4c0,1.7,1.3,3.1,3.1,3.1h6.1c1.7,0,3.1-1.3,3.1-3.1v-38h19.7v38
			c0,1.7,1.3,3.1,3.1,3.1h6.1c1.7,0,3.1-1.3,3.1-3.1V91C379.4,79,369.5,69,357.5,69z M367.2,110.1h-19.7V91c0-5.3,4.4-9.7,9.9-9.7
			c5.3,0,9.7,4.4,9.7,9.7V110.1z"/>
		<path fill="#000000" d="M142.7,202.8c-12.2,0-22.2,9.9-22.2,22v69.6c0,1.5,1.3,3.1,3.1,3.1h6.1c1.7,0,3.1-1.5,3.1-3.1v-69.6
			c0-5.3,4.4-9.7,9.9-9.7c5.4,0,9.8,4.4,9.8,9.7v69.6c0,1.5,1.3,3.1,3.1,3.1h6.1c1.7,0,3.1-1.5,3.1-3.1v-69.6
			C164.7,212.7,154.8,202.8,142.7,202.8z"/>
		<path fill="#000000" d="M357.5,202.8c-12.2,0-22.2,9.9-22.2,22v69.4c0,1.7,1.3,3.1,3.1,3.1h6.1c1.7,0,3.1-1.3,3.1-3.1v-38h19.7v38
			c0,1.7,1.3,3.1,3.1,3.1h6.1c1.7,0,3.1-1.3,3.1-3.1v-69.4C379.4,212.8,369.5,202.8,357.5,202.8z M367.2,243.9h-19.7v-19.1
			c0-5.3,4.4-9.7,9.9-9.7c5.3,0,9.7,4.4,9.7,9.7V243.9z"/>
		<path fill="#000000" d="M142.7,336.6c-12.2,0-22.2,9.9-22.2,22v69.6c0,1.5,1.3,3,3.1,3h6.1c1.7,0,3.1-1.5,3.1-3v-69.6
			c0-5.4,4.4-9.7,9.9-9.7c5.4,0,9.8,4.4,9.8,9.7v69.6c0,1.5,1.3,3,3.1,3h6.1c1.7,0,3.1-1.5,3.1-3v-69.6
			C164.7,346.5,154.8,336.6,142.7,336.6z"/>
		<path fill="#000000" d="M250.1,336.6H234c-3.2,0-6.1,2.7-6.1,6.1V425c0,3.2,2.9,6.1,6.1,6.1h16.1c12.2,0,22-9.9,22-22.2v-50.3
			C272.1,346.5,262.3,336.6,250.1,336.6z M259.9,409c0,5.4-4.4,9.7-9.7,9.7h-9.9v-69.9h9.9c5.3,0,9.7,4.4,9.7,9.9V409z"/>
		<path fill="#000000" d="M357.5,336.7c-12.2,0-22.2,9.9-22.2,22V428c0,1.7,1.3,3.1,3.1,3.1h6.1c1.7,0,3.1-1.3,3.1-3.1v-38h19.7v38
			c0,1.7,1.3,3.1,3.1,3.1h6.1c1.7,0,3.1-1.3,3.1-3.1v-69.4C379.4,346.6,369.5,336.7,357.5,336.7z M367.2,377.7h-19.7v-19.1
			c0-5.4,4.4-9.7,9.9-9.7c5.3,0,9.7,4.4,9.7,9.7V377.7z"/>
		<path fill="#000000" d="M250.1,201H231c-2.4,0-4.5,1.9-4.7,4.3c-0.2,0.6-0.4,1.3-0.4,2v85.4c0,0.7,0.2,1.4,0.4,2
			c0.2,2.3,2.4,4.4,4.7,4.4h6.1c1.2,0,2.4-0.5,3.2-1.3c1.8-1,3-2.9,3-5v-34h6.7c13.3,0,24.1-10.9,24.1-24.2v-8.9
			c0-3.5-0.8-6.8-2.1-9.8C268.6,207.2,260,201,250.1,201z M268.5,234.5c0,10.2-8.2,18.5-18.4,18.5h-12.4l-0.1,39.8l-5.8,0
			c-0.1,0-0.2-0.1-0.2-0.1c0,0,0,0,0,0l0.1-85.4h18.4c10.1,0,18.4,8.2,18.4,18.3V234.5z"/>
		<path fill="#000000" d="M256.5,215.2c-1.8-1.2-4-2-6.4-2h-11.7v0.1h-0.8v33.5h12.4c6.8,0,12.3-5.6,12.3-12.4v-8.9
			C262.4,221.2,260,217.4,256.5,215.2z M256.7,234.5c0,3.7-2.9,6.7-6.6,6.7h-6.7v-22.1h6.7c3.6,0,6.6,2.9,6.6,6.5V234.5z"/>
		<path fill="#000000" d="M82.6,240.7c-1.6-1.6-4.3-1.6-6,0l-6.6,6.6l-6.6-6.6c-1.6-1.6-4.3-1.6-6,0c-1.6,1.6-1.6,4.3,0,6l6.6,6.6
			l-6.6,6.6c-1.6,1.6-1.6,4.3,0,6c0.8,0.8,1.9,1.2,3,1.2c1.1,0,2.2-0.4,3-1.2l6.6-6.6l6.6,6.6c0.8,0.8,1.9,1.2,3,1.2
			c1.1,0,2.2-0.4,3-1.2c1.6-1.6,1.6-4.3,0-6l-6.6-6.6l6.6-6.6C84.3,245,84.3,242.4,82.6,240.7z"/>
		<path fill="#000000" d="M435.9,253.3l6.6-6.6c1.6-1.6,1.6-4.3,0-6c-1.6-1.6-4.3-1.6-6,0l-6.6,6.6l-6.6-6.6c-1.6-1.6-4.3-1.6-6,0
			c-1.6,1.6-1.6,4.3,0,6l6.6,6.6l-6.6,6.6c-1.6,1.6-1.6,4.3,0,6c0.8,0.8,1.9,1.2,3,1.2c1.1,0,2.2-0.4,3-1.2l6.6-6.6l6.6,6.6
			c0.8,0.8,1.9,1.2,3,1.2c1.1,0,2.2-0.4,3-1.2c1.6-1.6,1.6-4.3,0-6L435.9,253.3z"/>
	</g>
</g>
</svg>
